<svg width="16.000000" height="16.000000" viewBox="0 0 16 16" fill="none" xmlns="http://www.w3.org/2000/svg" xmlns:xlink="http://www.w3.org/1999/xlink">
	<desc>
			Created with Pixso.
	</desc>
	<defs>
		<clipPath id="clip584_261">
			<rect id="icon / sidebar / inactive / 3. ideas" width="16.000000" height="16.000000" fill="white" fill-opacity="0"/>
		</clipPath>
	</defs>
	<g clip-path="url(#clip584_261)">
		<g opacity="0.400000">
			<path id="Vector" d="M5.5 14.19C5.5 14.39 5.56 14.58 5.66 14.75L6.2 15.55C6.29 15.69 6.41 15.8 6.56 15.88C6.7 15.95 6.87 16 7.03 16L8.96 16C9.12 16 9.29 15.95 9.43 15.88C9.58 15.8 9.7 15.69 9.79 15.55L10.33 14.75C10.43 14.58 10.49 14.39 10.49 14.19L10.49 13L5.5 13L5.5 14.19ZM2.5 5.5C2.5 6.88 3.01 8.15 3.86 9.11C4.37 9.7 5.18 10.93 5.49 11.97C5.49 11.98 5.49 11.99 5.49 12L10.5 12C10.5 11.99 10.5 11.98 10.5 11.97C10.81 10.93 11.62 9.7 12.13 9.11C12.98 8.15 13.5 6.88 13.5 5.5C13.5 2.45 11.02 -0.01 7.98 0C4.79 0 2.5 2.59 2.5 5.5ZM8 3C6.62 3 5.5 4.12 5.5 5.5C5.5 5.77 5.27 6 5 6C4.72 6 4.5 5.77 4.5 5.5C4.5 3.56 6.07 2 8 2C8.27 2 8.5 2.22 8.5 2.5C8.5 2.77 8.27 3 8 3Z" fill="#9FA2B4" fill-opacity="1.000000" fill-rule="nonzero"/>
		</g>
	</g>
</svg>
