<svg width="16.000000" height="16.000000" viewBox="0 0 16 16" fill="none" xmlns="http://www.w3.org/2000/svg" xmlns:xlink="http://www.w3.org/1999/xlink">
	<desc>
			Created with Pixso.
	</desc>
	<defs>
		<clipPath id="clip584_277">
			<rect id="icon / sidebar / inactive / a_1. settings" width="16.000000" height="16.000000" fill="white" fill-opacity="0"/>
		</clipPath>
	</defs>
	<g clip-path="url(#clip584_277)">
		<g opacity="0.400000">
			<path id="Vector" d="M15.23 9.86L13.9 9.09C14.03 8.37 14.03 7.62 13.9 6.9L15.23 6.13C15.38 6.04 15.45 5.86 15.4 5.69C15.05 4.58 14.46 3.57 13.69 2.74C13.57 2.61 13.38 2.58 13.23 2.66L11.9 3.43C11.34 2.95 10.69 2.58 10 2.34L10 0.8C10 0.63 9.87 0.47 9.7 0.44C8.55 0.18 7.38 0.19 6.29 0.44C6.12 0.47 6 0.63 6 0.8L6 2.34C5.3 2.59 4.66 2.96 4.1 3.44L2.77 2.67C2.61 2.58 2.42 2.61 2.3 2.74C1.53 3.57 0.94 4.58 0.6 5.69C0.54 5.86 0.61 6.04 0.77 6.13L2.1 6.9C1.96 7.63 1.96 8.37 2.1 9.09L0.77 9.86C0.61 9.95 0.55 10.13 0.6 10.3C0.94 11.41 1.53 12.42 2.3 13.26C2.42 13.39 2.62 13.42 2.77 13.33L4.1 12.56C4.66 13.04 5.3 13.41 6 13.66L6 15.2C6 15.37 6.12 15.52 6.29 15.56C7.44 15.82 8.61 15.8 9.7 15.56C9.88 15.52 10 15.37 10 15.2L10 13.66C10.69 13.41 11.34 13.04 11.9 12.56L13.23 13.33C13.38 13.42 13.57 13.39 13.69 13.26C14.46 12.42 15.05 11.42 15.4 10.3C15.45 10.13 15.38 9.95 15.23 9.86ZM8 10.5C6.62 10.5 5.5 9.37 5.5 7.99C5.5 6.62 6.62 5.49 8 5.49C9.37 5.49 10.5 6.62 10.5 7.99C10.5 9.37 9.37 10.5 8 10.5Z" fill="#9FA2B4" fill-opacity="1.000000" fill-rule="nonzero"/>
		</g>
	</g>
</svg>
