<svg width="16.000000" height="16.000000" viewBox="0 0 16 16" fill="none" xmlns="http://www.w3.org/2000/svg" xmlns:xlink="http://www.w3.org/1999/xlink">
	<desc>
			Created with Pixso.
	</desc>
	<defs>
		<clipPath id="clip584_257">
			<rect id="icon / sidebar / inactive / 2. tickets" width="16.000000" height="16.000000" fill="white" fill-opacity="0"/>
		</clipPath>
	</defs>
	<g clip-path="url(#clip584_257)">
		<g opacity="0.400000">
			<path id="Vector" d="M3.55 5.33L12.44 5.33L12.44 10.66L3.55 10.66L3.55 5.33ZM14.66 8C14.66 8.73 15.26 9.33 16 9.33L16 12C16 12.73 15.4 13.33 14.66 13.33L1.33 13.33C0.59 13.33 0 12.73 0 12L0 9.33C0.73 9.33 1.33 8.73 1.33 8C1.33 7.26 0.73 6.66 0 6.66L0 4C0 3.26 0.59 2.66 1.33 2.66L14.66 2.66C15.4 2.66 16 3.26 16 4L16 6.66C15.26 6.66 14.66 7.26 14.66 8ZM13.33 5.11C13.33 4.74 13.03 4.44 12.66 4.44L3.33 4.44C2.96 4.44 2.66 4.74 2.66 5.11L2.66 10.88C2.66 11.25 2.96 11.55 3.33 11.55L12.66 11.55C13.03 11.55 13.33 11.25 13.33 10.88L13.33 5.11Z" fill="#9FA2B4" fill-opacity="1.000000" fill-rule="nonzero"/>
		</g>
	</g>
</svg>
