<svg width="16.000000" height="16.000000" viewBox="0 0 16 16" fill="none" xmlns="http://www.w3.org/2000/svg" xmlns:xlink="http://www.w3.org/1999/xlink">
	<desc>
			Created with Pixso.
	</desc>
	<defs>
		<clipPath id="clip584_265">
			<rect id="icon / sidebar / inactive / 4. contacts" width="16.000000" height="16.000000" fill="white" fill-opacity="0"/>
		</clipPath>
	</defs>
	<g clip-path="url(#clip584_265)">
		<g opacity="0.400000">
			<path id="Vector" d="M2.4 7.2C3.28 7.2 4 6.48 4 5.59C4 4.71 3.28 3.99 2.4 3.99C1.51 3.99 0.79 4.71 0.79 5.59C0.79 6.48 1.51 7.2 2.4 7.2ZM13.6 7.2C14.48 7.2 15.2 6.48 15.2 5.59C15.2 4.71 14.48 3.99 13.6 3.99C12.71 3.99 12 4.71 12 5.59C12 6.48 12.71 7.2 13.6 7.2ZM14.4 7.99L12.8 7.99C12.36 7.99 11.96 8.17 11.67 8.46C12.68 9.01 13.39 10.01 13.55 11.2L15.2 11.2C15.64 11.2 16 10.84 16 10.4L16 9.59C16 8.71 15.28 7.99 14.4 7.99ZM8 7.99C9.54 7.99 10.8 6.74 10.8 5.2C10.8 3.65 9.54 2.39 8 2.39C6.45 2.39 5.2 3.65 5.2 5.2C5.2 6.74 6.45 7.99 8 7.99ZM9.91 8.8L9.71 8.8C9.19 9.05 8.61 9.2 8 9.2C7.38 9.2 6.81 9.05 6.28 8.8L6.08 8.8C4.48 8.8 3.2 10.09 3.2 11.68L3.2 12.4C3.2 13.06 3.73 13.6 4.4 13.6L11.6 13.6C12.26 13.6 12.8 13.06 12.8 12.4L12.8 11.68C12.8 10.09 11.51 8.8 9.91 8.8ZM4.32 8.46C4.03 8.17 3.64 7.99 3.2 7.99L1.59 7.99C0.71 7.99 0 8.71 0 9.59L0 10.4C0 10.84 0.35 11.2 0.79 11.2L2.44 11.2C2.6 10.01 3.32 9.01 4.32 8.46Z" fill="#9FA2B4" fill-opacity="1.000000" fill-rule="nonzero"/>
		</g>
	</g>
</svg>
