<svg width="16.000000" height="16.000000" viewBox="0 0 16 16" fill="none" xmlns="http://www.w3.org/2000/svg" xmlns:xlink="http://www.w3.org/1999/xlink">
	<desc>
			Created with Pixso.
	</desc>
	<defs>
		<clipPath id="clip584_281">
			<rect id="icon / sidebar / inactive / a_2. subscription" width="16.000000" height="16.000000" fill="white" fill-opacity="0"/>
		</clipPath>
	</defs>
	<g clip-path="url(#clip584_281)">
		<g opacity="0.400000">
			<path id="Vector" d="M5.03 11.33C4.76 11.06 4.9 11.13 4.25 10.96C3.95 10.88 3.69 10.72 3.45 10.54L2.03 14.02C1.9 14.35 2.15 14.72 2.51 14.71L4.16 14.64L5.29 15.84C5.54 16.1 5.98 16.02 6.12 15.68L7.75 11.7C7.41 11.88 7.03 12 6.64 12C6.03 12 5.46 11.76 5.03 11.33ZM13.96 14.02L12.54 10.54C12.3 10.72 12.04 10.88 11.75 10.96C11.09 11.13 11.23 11.06 10.96 11.33C10.53 11.76 9.96 12 9.35 12C8.96 12 8.58 11.88 8.24 11.7L9.87 15.68C10.01 16.02 10.45 16.1 10.7 15.84L11.83 14.64L13.48 14.71C13.84 14.72 14.09 14.35 13.96 14.02ZM10.21 10.62C10.69 10.13 10.75 10.18 11.43 9.99C11.86 9.87 12.2 9.53 12.32 9.09C12.55 8.2 12.49 8.3 13.13 7.66C13.44 7.33 13.57 6.86 13.45 6.42C13.22 5.53 13.22 5.66 13.45 4.77C13.57 4.33 13.44 3.85 13.13 3.53C12.49 2.88 12.55 2.99 12.32 2.1C12.2 1.66 11.86 1.31 11.43 1.2C10.55 0.96 10.66 1.02 10.02 0.37C9.7 0.05 9.24 -0.08 8.81 0.04C7.94 0.28 8.06 0.28 7.18 0.04C6.75 -0.08 6.29 0.05 5.97 0.37C5.33 1.02 5.44 0.96 4.56 1.2C4.13 1.31 3.79 1.66 3.67 2.1C3.44 2.99 3.5 2.88 2.86 3.53C2.55 3.85 2.42 4.33 2.54 4.77C2.77 5.65 2.77 5.53 2.54 6.42C2.42 6.86 2.55 7.33 2.86 7.66C3.5 8.3 3.44 8.2 3.67 9.09C3.79 9.53 4.13 9.87 4.56 9.99C5.26 10.18 5.32 10.15 5.78 10.62C6.19 11.04 6.83 11.12 7.33 10.8C7.53 10.68 7.76 10.61 8 10.61C8.23 10.61 8.46 10.68 8.66 10.8C9.16 11.12 9.8 11.04 10.21 10.62ZM5.05 5.49C5.05 3.84 6.37 2.49 8 2.49C9.62 2.49 10.94 3.84 10.94 5.49C10.94 7.15 9.62 8.49 8 8.49C6.37 8.49 5.05 7.15 5.05 5.49Z" fill="#9FA2B4" fill-opacity="1.000000" fill-rule="nonzero"/>
		</g>
	</g>
</svg>
