<svg width="18.000000" height="18.000000" viewBox="0 0 18 18" fill="none" xmlns="http://www.w3.org/2000/svg" xmlns:xlink="http://www.w3.org/1999/xlink">
	<desc>
			Created with Pixso.
	</desc>
	<defs/>
	<path id="Vector" d="M8 18C9.1 18 9.99 17.1 9.99 16L6 16C6 17.1 6.89 18 8 18ZM14.73 13.32C14.12 12.67 12.99 11.69 12.99 8.5C12.99 6.07 11.29 4.12 8.99 3.65L8.99 3C8.99 2.44 8.55 2 8 2C7.44 2 7 2.44 7 3L7 3.65C4.7 4.12 3 6.07 3 8.5C3 11.69 1.87 12.67 1.26 13.32C1.08 13.52 0.99 13.76 1 14C1 14.51 1.4 15 2 15L13.99 15C14.59 15 14.99 14.51 15 14C15 13.76 14.91 13.52 14.73 13.32Z" fill="#C5C7CD" fill-opacity="1.000000" fill-rule="nonzero"/>
	<circle id="new" cx="13.000000" cy="4.000000" r="3.000000" fill="#3751FF" fill-opacity="1.000000"/>
	<circle id="new" cx="13.000000" cy="4.000000" r="3.750000" stroke="#F7F8FC" stroke-opacity="1.000000" stroke-width="1.500000"/>
</svg>
